# xmcd CD database file
#
# Track frame offsets:
#	150
#	43365
#	64822
#	78994
#	130838
#	151090
#	230866
#	252881
#
# Disc length: 4308 seconds
#
# Revision: 1
# Processed by: cddbd v1.5.2PL0 Copyright (c) Steve Scherf et al.
# Submitted via: CDex 1.70beta2
#
DISCID=6810d208
DTITLE=Cobana Live - Latin Jazz and Salsa ORQUESTA
DYEAR=1900
DGENRE=Jazz
TTITLE0=Pick Up The Pieces
TTITLE1=Cuba Libre
TTITLE2=Besame Mucho
TTITLE3=September I Can't Stop Loving You
TTITLE4=Sing Sing Sing
TTITLE5=Medley
TTITLE6=Song For 월암 (월암을 추모하여)
TTITLE7=Santana Medley
EXTD=
EXTT0=
EXTT1=
EXTT2=
EXTT3=
EXTT4=
EXTT5=
EXTT6=
EXTT7=
PLAYORDER=
